<svg id="Camada_1" data-name="Camada 1" xmlns="http://www.w3.org/2000/svg" viewBox="0 0 585.1 243.78"><defs><style>.cls-1{fill:#ed6c3e;}.cls-2{fill:#6d36d8;}.cls-3{fill:#ec6c3e;}</style></defs><path class="cls-1" d="M562.23,56.43H532V26.17a24.76,24.76,0,0,0-49.52,0V56.43H452.18a24.76,24.76,0,1,0,0,49.52h30.27v30.27a24.76,24.76,0,0,0,49.52,0V106h30.26a24.76,24.76,0,0,0,0-49.52Z" transform="translate(-1.9 -1.41)"/><path class="cls-2" d="M108.1,161a26.77,26.77,0,0,1-19-7.89L55.79,119.83V134A26.95,26.95,0,1,1,1.9,134V28.35a26.95,26.95,0,0,1,53.89,0V42.56L89.05,9.3a26.95,26.95,0,0,1,38.11,38.11L93.37,81.19,127.16,115a26.95,26.95,0,0,1-19.06,46ZM52.62,109a3.13,3.13,0,0,1,2.24.93L93.53,148.6a20.61,20.61,0,0,0,29.15-29.14l-36-36a3.16,3.16,0,0,1,0-4.48l36-36A20.61,20.61,0,1,0,93.53,13.78L54.86,52.45a3.17,3.17,0,0,1-5.41-2.24V28.35a20.61,20.61,0,1,0-41.21,0V134a20.61,20.61,0,1,0,41.21,0V112.18A3.17,3.17,0,0,1,52.62,109Z" transform="translate(-1.9 -1.41)"/><path class="cls-2" d="M373.78,161A27,27,0,0,1,346.84,134V93.41L340,100.25a26.94,26.94,0,0,1-38.11,0l-6.84-6.83V134a26.95,26.95,0,1,1-53.89,0V28.35A26.94,26.94,0,0,1,253,6a27.68,27.68,0,0,1,3.38-1.95A27,27,0,0,1,279.55,4l.22.1.43.22.29.14.45.24a1.06,1.06,0,0,1,.19.11,26.88,26.88,0,0,1,5,3.58l.07.06c.32.29.63.59.94.9,17.9,17.91,23.68,23.68,33.77,33.77L354.66,9.37a.46.46,0,0,1,.07-.07l.36-.35.21-.19c.12-.13.25-.25.38-.37s.51-.45.79-.68l.18-.16.64-.5.1-.08.26-.2.55-.4.2-.14.31-.22.52-.33.27-.17.3-.2.34-.19.36-.21.41-.23.25-.13a26.94,26.94,0,0,1,39.57,23.8V134A27,27,0,0,1,373.78,161ZM350,82.59a3.27,3.27,0,0,1,1.22.24,3.17,3.17,0,0,1,1.95,2.93V134a20.61,20.61,0,0,0,41.22,0V28.35a20.6,20.6,0,0,0-12.5-19h0a20.62,20.62,0,0,0-17.76.74l-.14.07h0l0,0-.28.16-.21.13-.23.13-.65.4-.32.21-.16.11-.3.21-.36.26-.32.25-.46.36v0l-.11.09c-.22.18-.42.36-.62.54a1.65,1.65,0,0,0-.23.22l-.29.27-.16.15-.05,0-36,36a3.17,3.17,0,0,1-2.24.92h0a3.19,3.19,0,0,1-2.24-.92l-36-36q-.33-.33-.66-.63L282,13.1a20.79,20.79,0,0,0-3.91-2.8l-.14-.08-.25-.13-.41-.21-.2-.1-.16-.07a20.63,20.63,0,0,0-17.72.06,20.08,20.08,0,0,0-2.58,1.49,20.61,20.61,0,0,0-9.1,17.09V134a20.61,20.61,0,1,0,41.22,0V85.76a3.17,3.17,0,0,1,5.41-2.24l12.25,12.24a20.61,20.61,0,0,0,29.15,0l12.24-12.24A3.17,3.17,0,0,1,350,82.59Z" transform="translate(-1.9 -1.41)"/><path class="cls-2" d="M187.52,161A27,27,0,0,1,160.58,134V28.35a26.95,26.95,0,0,1,53.89,0V134A27,27,0,0,1,187.52,161Zm0-153.24a20.64,20.64,0,0,0-20.61,20.61V134a20.61,20.61,0,1,0,41.22,0V28.35A20.63,20.63,0,0,0,187.52,7.74Z" transform="translate(-1.9 -1.41)"/><path class="cls-3" d="M181.7,244.29V198.54H194v8h.47a12,12,0,0,1,4.2-6.45,11.1,11.1,0,0,1,6.8-2.19,17.05,17.05,0,0,1,4,.45v11.26a12.56,12.56,0,0,0-2.47-.49,24,24,0,0,0-2.89-.2,9.67,9.67,0,0,0-7,2.64,9.08,9.08,0,0,0-2.76,6.87v25.88Z" transform="translate(-1.9 -1.41)"/><path class="cls-3" d="M238.56,245.19a24.2,24.2,0,0,1-12.12-2.88,19.35,19.35,0,0,1-7.84-8.16,29.7,29.7,0,0,1,0-24.92,20.21,20.21,0,0,1,7.73-8.31,22.42,22.42,0,0,1,11.72-3A23,23,0,0,1,249,200.5a18.69,18.69,0,0,1,7.73,7.73q2.87,5.18,2.86,13v3.48H228.4v0a11.29,11.29,0,0,0,2.8,8.08,10,10,0,0,0,7.57,2.95,10.79,10.79,0,0,0,5.51-1.35,7.29,7.29,0,0,0,3.28-4l11.74.78a16.13,16.13,0,0,1-6.8,10.19Q247.06,245.19,238.56,245.19ZM228.4,216.8h19.22a9.39,9.39,0,0,0-2.62-6.74,9,9,0,0,0-6.74-2.65,9.37,9.37,0,0,0-6.94,2.74A9.91,9.91,0,0,0,228.4,216.8Z" transform="translate(-1.9 -1.41)"/><path class="cls-3" d="M313.65,198.54l-16,45.75H283.35l-16-45.75h13.4l9.51,32.74h.47l9.48-32.74Z" transform="translate(-1.9 -1.41)"/><path class="cls-3" d="M343.34,245.19a24.2,24.2,0,0,1-12.12-2.88,19.35,19.35,0,0,1-7.84-8.16,29.7,29.7,0,0,1,0-24.92,20.21,20.21,0,0,1,7.73-8.31,22.42,22.42,0,0,1,11.72-3,23,23,0,0,1,10.92,2.56,18.77,18.77,0,0,1,7.74,7.73q2.85,5.18,2.85,13v3.48H333.18v0a11.29,11.29,0,0,0,2.8,8.08,10,10,0,0,0,7.57,2.95,10.77,10.77,0,0,0,5.51-1.35,7.29,7.29,0,0,0,3.28-4l11.74.78a16.13,16.13,0,0,1-6.8,10.19Q351.84,245.19,343.34,245.19ZM333.18,216.8H352.4a9.39,9.39,0,0,0-2.62-6.74,9,9,0,0,0-6.74-2.65,9.37,9.37,0,0,0-6.94,2.74A9.91,9.91,0,0,0,333.18,216.8Z" transform="translate(-1.9 -1.41)"/><path class="cls-3" d="M389.18,217.84v26.45H376.49V198.54h12.09v8.07h.54a13,13,0,0,1,5.11-6.33,15.4,15.4,0,0,1,8.65-2.34q7.15,0,11.47,4.6t4.32,12.62v29.13H406V217.42a9.25,9.25,0,0,0-2.15-6.57,7.7,7.7,0,0,0-6-2.36,8.35,8.35,0,0,0-6.24,2.45A9.56,9.56,0,0,0,389.18,217.84Z" transform="translate(-1.9 -1.41)"/><path class="cls-3" d="M449.37,245a17,17,0,0,1-9.41-2.7,18.35,18.35,0,0,1-6.67-8,30.23,30.23,0,0,1-2.48-12.92,29.79,29.79,0,0,1,2.55-13.09,18.32,18.32,0,0,1,6.76-7.83,17.2,17.2,0,0,1,9.22-2.61,14.15,14.15,0,0,1,6.42,1.3,12.78,12.78,0,0,1,4.17,3.2,16.14,16.14,0,0,1,2.43,3.78h.39V183.28h12.66v61H462.9V237h-.54a15.17,15.17,0,0,1-2.5,3.76,12.8,12.8,0,0,1-4.22,3.09A14.6,14.6,0,0,1,449.37,245Zm4-10.1a8.11,8.11,0,0,0,7.11-3.71q2.52-3.71,2.52-9.82t-2.51-9.75a8.12,8.12,0,0,0-7.12-3.62,8,8,0,0,0-7.16,3.71,17.17,17.17,0,0,0-2.46,9.66,17.46,17.46,0,0,0,2.47,9.76A8,8,0,0,0,453.39,234.94Z" transform="translate(-1.9 -1.41)"/><path class="cls-3" d="M502.71,245.16a16.91,16.91,0,0,1-10.87-3.43q-4.32-3.42-4.32-10.22,0-5.12,2.41-8a13.85,13.85,0,0,1,6.33-4.27,35.57,35.57,0,0,1,8.45-1.78,63.08,63.08,0,0,0,8.52-1.25c1.71-.44,2.56-1.39,2.56-2.86v-.18a5.53,5.53,0,0,0-1.77-4.38,7.41,7.41,0,0,0-5-1.54,9,9,0,0,0-5.45,1.48,7,7,0,0,0-2.68,3.79l-11.74-1a15.64,15.64,0,0,1,6.51-9.92q5.19-3.66,13.42-3.66a27.56,27.56,0,0,1,9.53,1.61,15.83,15.83,0,0,1,7.17,5,13.8,13.8,0,0,1,2.72,8.86v30.86h-12V238h-.36a13.23,13.23,0,0,1-5,5.2A16,16,0,0,1,502.71,245.16Zm3.64-8.76A9.81,9.81,0,0,0,513.2,234a7.8,7.8,0,0,0,2.68-6v-4.86a7.26,7.26,0,0,1-2.31.9c-1,.26-2.15.48-3.33.67l-3.18.49a12.5,12.5,0,0,0-5.37,1.88,4.62,4.62,0,0,0-2.05,4.08,4.53,4.53,0,0,0,1.9,4A8.14,8.14,0,0,0,506.35,236.4Z" transform="translate(-1.9 -1.41)"/></svg>